<svg aria-hidden="true" style="position: absolute; width: 0; height: 0; overflow: hidden;" version="1.1" xmlns="http://www.w3.org/2000/svg" xmlns:xlink="http://www.w3.org/1999/xlink">
<defs>
<symbol id="icon-search" viewBox="0 0 32 32">
<path fill="#dc0a2d" style="fill: var(--color1, #dc0a2d)" d="M25.8 27.233l-8.033-8.033c-0.667 0.578-1.444 1.028-2.333 1.35s-1.833 0.483-2.833 0.483c-2.4 0-4.433-0.833-6.1-2.5s-2.5-3.678-2.5-6.033c0-2.356 0.833-4.367 2.5-6.033s3.689-2.5 6.067-2.5c2.356 0 4.361 0.833 6.017 2.5s2.483 3.678 2.483 6.033c0 0.956-0.155 1.878-0.467 2.767s-0.778 1.722-1.4 2.5l8.1 8.033c0.2 0.178 0.3 0.406 0.3 0.683s-0.111 0.528-0.333 0.75c-0.2 0.2-0.444 0.3-0.733 0.3s-0.533-0.1-0.733-0.3zM12.567 19.033c1.8 0 3.333-0.639 4.6-1.917s1.9-2.817 1.9-4.617c0-1.8-0.633-3.339-1.9-4.617s-2.8-1.917-4.6-1.917c-1.822 0-3.372 0.639-4.65 1.917s-1.917 2.817-1.917 4.617c0 1.8 0.639 3.339 1.917 4.617s2.828 1.917 4.65 1.917z"></path>
</symbol>
<symbol id="icon-tag" viewBox="0 0 32 32">
<path fill="#dc0a2d" style="fill: var(--color1, #dc0a2d)" d="M9.567 26.667c-0.311 0-0.567-0.122-0.767-0.367s-0.256-0.522-0.167-0.833l1.133-4.467h-3.833c-0.311 0-0.572-0.128-0.783-0.383s-0.272-0.539-0.183-0.85c0.044-0.222 0.156-0.406 0.333-0.55s0.389-0.217 0.633-0.217h4.333l1.5-6h-4.5c-0.311 0-0.572-0.128-0.783-0.383s-0.272-0.539-0.183-0.85c0.044-0.222 0.156-0.406 0.333-0.55s0.389-0.217 0.633-0.217h5l1.233-4.933c0.044-0.222 0.15-0.4 0.317-0.533s0.361-0.2 0.583-0.2c0.311 0 0.561 0.122 0.75 0.367s0.25 0.522 0.183 0.833l-1.1 4.467h6.033l1.233-4.933c0.045-0.222 0.15-0.4 0.317-0.533s0.361-0.2 0.583-0.2c0.311 0 0.561 0.122 0.75 0.367s0.25 0.522 0.183 0.833l-1.1 4.467h3.833c0.311 0 0.572 0.128 0.783 0.383s0.272 0.539 0.183 0.85c-0.044 0.222-0.156 0.406-0.333 0.55s-0.389 0.217-0.633 0.217h-4.333l-1.5 6h4.5c0.311 0 0.572 0.128 0.783 0.383s0.272 0.539 0.183 0.85c-0.044 0.222-0.155 0.405-0.333 0.55s-0.389 0.217-0.633 0.217h-5l-1.233 4.933c-0.044 0.178-0.139 0.344-0.283 0.5s-0.361 0.233-0.65 0.233c-0.311 0-0.567-0.122-0.767-0.367s-0.256-0.522-0.167-0.833l1.133-4.467h-6.033l-1.233 4.933c-0.044 0.178-0.139 0.344-0.283 0.5s-0.361 0.233-0.65 0.233zM12.233 19h6.033l1.5-6h-6.033l-1.5 6z"></path>
</symbol>
<symbol id="icon-pokeball" viewBox="0 0 32 32">
<path fill="#fff" style="fill: var(--color2, #fff)" d="M19.81 16c0 2.104-1.706 3.809-3.809 3.809s-3.81-1.705-3.81-3.809 1.706-3.81 3.81-3.81c2.104 0 3.809 1.706 3.809 3.81z"></path>
<path fill="#fff" style="fill: var(--color2, #fff)" d="M16 32c8.060 0 14.729-5.961 15.838-13.714h-9.371c-0.941 2.663-3.481 4.571-6.467 4.571s-5.526-1.908-6.467-4.571h-9.371c1.109 7.754 7.777 13.714 15.838 13.714zM9.533 13.714h-9.371c1.109-7.754 7.777-13.714 15.838-13.714s14.729 5.96 15.838 13.714h-9.371c-0.941-2.663-3.481-4.571-6.467-4.571s-5.526 1.908-6.467 4.571zM19.81 16c0 2.104-1.706 3.809-3.809 3.809s-3.81-1.705-3.81-3.809 1.706-3.81 3.81-3.81c2.104 0 3.809 1.706 3.809 3.81z"></path>
</symbol>
</defs>
</svg>
